# xmcd
#
# Track frame offsets: 
#        150
#        30566
#        43214
#        60420
#        82816
#        98148
#        118347
#        133857
#        150877
#        164484
#        182567
#
# Disc length: 2600 seconds
#
# Revision: 0
# Processed by: cddbd v1.5.1PL0 Copyright (c) Steve Scherf et al.
# Submitted via: ExactAudioCopy v0.95a5
#
DISCID=860a260b
DTITLE=Eddie Martin and The Texas Blues Kings - Pillowcase Blues
DYEAR=2002
DGENRE=Blues
TTITLE0=Down The Road
TTITLE1=Pillowcase Blues
TTITLE2=Underwater Woman
TTITLE3=Natural Thing
TTITLE4=Cool And Lonesome
TTITLE5=I Done, Done It
TTITLE6=Please Stop
TTITLE7=The Hatfields And The McCoys
TTITLE8=Let's Get Together
TTITLE9=I Wanna Groove With You
TTITLE10=Long Ride Home
EXTD=
EXTT0=
EXTT1=
EXTT2=
EXTT3=
EXTT4=
EXTT5=
EXTT6=
EXTT7=
EXTT8=
EXTT9=
EXTT10=
PLAYORDER=
